<?xml version="1.0" encoding="UTF-8" standalone="no"?>
<!-- Created with Inkscape (http://www.inkscape.org/) -->

<svg
   width="43.958809mm"
   height="25.060736mm"
   viewBox="0 0 43.958809 25.060736"
   version="1.1"
   id="svg5"
   sodipodi:docname="Logo_CG_vettoriale.svg"
   inkscape:version="1.2.2 (732a01da63, 2022-12-09)"
   inkscape:export-filename="Business_Card_back_last.pdf"
   inkscape:export-xdpi="299.815"
   inkscape:export-ydpi="299.815"
   xmlns:inkscape="http://www.inkscape.org/namespaces/inkscape"
   xmlns:sodipodi="http://sodipodi.sourceforge.net/DTD/sodipodi-0.dtd"
   xmlns="http://www.w3.org/2000/svg"
   xmlns:svg="http://www.w3.org/2000/svg">
  <sodipodi:namedview
     id="namedview7"
     pagecolor="#ffffff"
     bordercolor="#999999"
     borderopacity="1"
     inkscape:pageshadow="0"
     inkscape:pageopacity="0"
     inkscape:pagecheckerboard="false"
     inkscape:document-units="mm"
     showgrid="false"
     width="55mm"
     inkscape:zoom="3.4588258"
     inkscape:cx="50.161531"
     inkscape:cy="50.450647"
     inkscape:window-width="1920"
     inkscape:window-height="1002"
     inkscape:window-x="-8"
     inkscape:window-y="-8"
     inkscape:window-maximized="1"
     inkscape:current-layer="g36245"
     height="85mm"
     inkscape:showpageshadow="0"
     inkscape:deskcolor="#d1d1d1"
     inkscape:export-bgcolor="#ffffffff" />
  <defs
     id="defs2">
    <rect
       x="13.299311"
       y="17.636044"
       width="178.24394"
       height="283.12775"
       id="rect3166" />
    <rect
       x="32.143047"
       y="104.87549"
       width="251.51349"
       height="64.520714"
       id="rect2504" />
  </defs>
  <g
     inkscape:groupmode="layer"
     id="layer2"
     inkscape:label="Layer 2"
     style="display:none"
     transform="translate(-5.4177244,-40.170286)">
    <text
       xml:space="preserve"
       transform="matrix(0.26458333,0,0,0.26458333,1.0698574,5.4229173)"
       id="text3164"
       style="font-style:normal;font-variant:normal;font-weight:normal;font-stretch:normal;font-size:8px;line-height:0;font-family:Montserrat;-inkscape-font-specification:Montserrat;letter-spacing:0px;word-spacing:0px;white-space:pre;shape-inside:url(#rect3166);display:inline;fill:#000000;fill-opacity:1;stroke:none;stroke-width:1px;stroke-linecap:butt;stroke-linejoin:miter;stroke-opacity:1"><tspan
         x="13.298828"
         y="30.234004"
         id="tspan393"><tspan
           style="font-weight:600;font-size:16px;line-height:100%;-inkscape-font-specification:'Montserrat Semi-Bold'"
           id="tspan389">Dott. Corrado Gizzi</tspan><tspan
           style="line-height:100%"
           id="tspan391">
</tspan></tspan><tspan
         x="13.298828"
         y="39.935361"
         id="tspan397"><tspan
           style="line-height:100%"
           id="tspan395">
</tspan></tspan><tspan
         x="13.298828"
         y="50.851798"
         id="tspan401"><tspan
           style="font-size:9.33333px;line-height:140%"
           id="tspan399">Medico Chirurgo
</tspan></tspan><tspan
         x="13.298828"
         y="63.91846"
         id="tspan405"><tspan
           style="font-size:9.33333px;line-height:140%"
           id="tspan403">Specialista in Oftalmologia
</tspan></tspan><tspan
         x="13.298828"
         y="76.985122"
         id="tspan409"><tspan
           style="font-size:9.33333px;line-height:140%"
           id="tspan407">Fellowship in Glaucoma
</tspan></tspan><tspan
         x="13.298828"
         y="90.05178"
         id="tspan415"><tspan
           style="font-size:9.33333px;line-height:140%"
           id="tspan411">Moorfields Eye Hospital, London - UK</tspan><tspan
           style="line-height:94.53%"
           id="tspan413">
</tspan></tspan><tspan
         x="13.298828"
         y="103.60201"
         id="tspan419"><tspan
           style="line-height:185%"
           id="tspan417">
</tspan></tspan><tspan
         x="13.298828"
         y="118.40201"
         id="tspan423"><tspan
           style="line-height:185%"
           id="tspan421">
</tspan></tspan><tspan
         x="13.298828"
         y="133.20201"
         id="tspan427"><tspan
           style="line-height:185%"
           id="tspan425">
</tspan></tspan><tspan
         x="13.298828"
         y="146.95846"
         id="tspan433"><tspan
           style="font-weight:500;font-size:9.33333px;-inkscape-font-specification:'Montserrat Medium'"
           id="tspan429">LCB - Life Clinic Bologna</tspan><tspan
           style="font-size:9.33333px;line-height:128%"
           id="tspan431">
</tspan></tspan><tspan
         x="13.298828"
         y="158.90511"
         id="tspan437"><tspan
           style="font-size:9.33333px;line-height:128%"
           id="tspan435">Via del Lavoro 44 - Bologna
</tspan></tspan><tspan
         x="13.298828"
         y="170.85177"
         id="tspan441"><tspan
           style="font-size:9.33333px;line-height:128%"
           id="tspan439">Tel. 051.242588
</tspan></tspan><tspan
         x="13.298828"
         y="182.79842"
         id="tspan445"><tspan
           style="font-size:9.33333px;line-height:128%"
           id="tspan443">
</tspan></tspan><tspan
         x="13.298828"
         y="194.74508"
         id="tspan451"><tspan
           style="font-weight:500;font-size:9.33333px;-inkscape-font-specification:'Montserrat Medium'"
           id="tspan447">Studio Sapigni</tspan><tspan
           style="font-size:9.33333px;line-height:128%"
           id="tspan449">
</tspan></tspan><tspan
         x="13.298828"
         y="206.69173"
         id="tspan455"><tspan
           style="font-size:9.33333px;line-height:128%"
           id="tspan453">Viale Carducci 29a - Gambettola (FC)
</tspan></tspan><tspan
         x="13.298828"
         y="218.63839"
         id="tspan459"><tspan
           style="font-size:9.33333px;line-height:128%"
           id="tspan457">Tel. 0547.59318    Cell. 392.5132783
</tspan></tspan><tspan
         x="13.298828"
         y="230.58504"
         id="tspan463"><tspan
           style="font-size:9.33333px;line-height:128%"
           id="tspan461">
</tspan></tspan><tspan
         x="13.298828"
         y="242.3917"
         id="tspan469"><tspan
           style="font-weight:500;font-size:9.33333px;line-height:125%;-inkscape-font-specification:'Montserrat Medium'"
           id="tspan465">Polo Oculistico Emiliano</tspan><tspan
           style="font-size:9.33333px;line-height:125%"
           id="tspan467">
</tspan></tspan><tspan
         x="13.298828"
         y="254.05835"
         id="tspan473"><tspan
           style="font-size:9.33333px;line-height:125%"
           id="tspan471">Via Vignolese 19 - Modena
</tspan></tspan><tspan
         x="13.298828"
         y="265.72501"
         id="tspan477"><tspan
           style="font-size:9.33333px;line-height:125%"
           id="tspan475">Tel. 059. 7128699    Cell. </tspan></tspan><tspan
         x="13.298828"
         y="277.39167"
         id="tspan483"><tspan
           style="font-size:9.33333px;line-height:125%"
           id="tspan479">338.2580808</tspan><tspan
           style="line-height:125%"
           id="tspan481"> 
</tspan></tspan></text>
  </g>
  <g
     inkscape:label="Layer 1"
     inkscape:groupmode="layer"
     id="layer1"
     style="display:inline"
     transform="translate(-5.4177244,-40.170286)">
    <g
       id="g36245"
       transform="matrix(0.85462164,0,0,0.85462164,3.795579,31.611819)"
       style="fill:#000000;fill-opacity:1;stroke-width:1.17011">
      <path
         style="fill:#000000;fill-opacity:1;stroke-width:1.17011"
         d="m 26.568406,27.716171 c -0.05254,-0.01029 -0.310441,-0.05312 -0.573123,-0.09517 -1.038467,-0.166247 -2.36874,-0.697638 -3.293189,-1.315496 -0.569146,-0.380391 -1.244972,-0.937245 -1.168936,-0.963157 0.03115,-0.01062 0.395948,0.150518 0.810656,0.358078 0.414708,0.20756 1.026248,0.478523 1.358977,0.602141 0.76457,0.284059 2.163761,0.651901 2.855873,0.750799 0.814646,0.116406 1.970381,0.0455 3.121442,-0.191496 1.249779,-0.257325 1.805158,-0.434714 2.828204,-0.903333 0.454709,-0.208285 0.839793,-0.36565 0.855743,-0.349701 0.04612,0.04612 -0.63538,0.558774 -1.182465,0.889502 -0.985497,0.595758 -2.191214,1.022091 -3.344071,1.182439 -0.43737,0.06083 -2.013775,0.08542 -2.269111,0.0354 z m -0.562061,-1.247146 c -1.154973,-0.13414 -2.228098,-0.49753 -3.831882,-1.297581 -0.577899,-0.288287 -1.151022,-0.557654 -1.273606,-0.598594 -0.156995,-0.05243 -0.305133,-0.187752 -0.501122,-0.457758 -0.153033,-0.210827 -0.261208,-0.400355 -0.24039,-0.421173 0.09032,-0.09032 1.382796,0.405141 2.408822,0.923416 1.182146,0.597135 2.139287,0.950487 3.076875,1.135902 0.453011,0.08959 0.893419,0.113349 2.101451,0.113386 2.222437,6.4e-5 2.73447,-0.125046 5.062586,-1.237032 1.333827,-0.637081 2.037112,-0.923852 2.162871,-0.881933 0.03886,0.01296 -0.06623,0.207771 -0.233544,0.432924 -0.302075,0.406501 -0.312242,0.413247 -1.451089,0.962881 -1.919193,0.926248 -2.492217,1.125885 -3.725323,1.297873 -0.766315,0.106883 -2.74135,0.122263 -3.555649,0.02769 z m 0.09304,-1.207545 c -1.096549,-0.150669 -2.063087,-0.493003 -3.574681,-1.2661 -0.969002,-0.495593 -1.715181,-0.773971 -2.425319,-0.904819 -0.376103,-0.0693 -0.397929,-0.08382 -0.527753,-0.351033 -0.07448,-0.153309 -0.135424,-0.306633 -0.135424,-0.34072 0,-0.08712 0.18487,-0.07748 0.750929,0.03916 0.885366,0.182421 1.657332,0.471077 2.898148,1.083686 1.964942,0.970121 2.660359,1.139921 4.661207,1.138125 2.020846,-0.0018 2.426257,-0.105753 4.776025,-1.22448 0.735507,-0.350175 1.487209,-0.685401 1.670447,-0.744944 0.41381,-0.134469 1.497095,-0.35938 1.537302,-0.319174 0.01634,0.01634 -0.03773,0.173678 -0.120146,0.349644 -0.110312,0.235521 -0.192973,0.328621 -0.313281,0.352852 -0.551461,0.111065 -1.528674,0.492352 -2.672438,1.04273 -2.147302,1.033279 -2.607537,1.150193 -4.655028,1.182524 -0.788044,0.01244 -1.629539,-0.0044 -1.869988,-0.03745 z m -0.01276,-1.234016 c -0.80792,-0.125549 -1.558534,-0.39653 -2.763791,-0.997763 -1.593271,-0.79479 -2.581763,-1.124891 -3.75272,-1.253196 l -0.407372,-0.04464 -0.09004,-0.309207 c -0.04952,-0.170064 -0.07603,-0.32321 -0.05892,-0.340326 0.0568,-0.0568 1.208384,0.112597 1.880963,0.276679 0.87109,0.212511 1.66207,0.51847 2.521478,0.97533 0.91297,0.485335 1.678413,0.798834 2.370403,0.970836 0.482163,0.119848 0.742486,0.139384 1.896179,0.1423 1.855981,0.0047 2.113794,-0.05998 4.171062,-1.046253 0.717996,-0.344214 1.55582,-0.713504 1.861831,-0.820643 0.513594,-0.179817 1.538688,-0.401097 2.204724,-0.475919 0.272436,-0.0306 0.276944,-0.02803 0.243435,0.13881 -0.09648,0.480372 -0.107279,0.488446 -0.807165,0.603331 -0.927757,0.152291 -1.747754,0.449115 -3.343624,1.210334 -1.540592,0.734851 -1.815401,0.833294 -2.706414,0.969507 -0.73612,0.112533 -2.498254,0.11298 -3.220031,8.15e-4 z m 0.258895,-1.18402 c -0.638212,-0.08412 -1.548105,-0.415132 -2.538037,-0.92332 -1.586201,-0.814286 -2.629086,-1.154887 -4.112936,-1.343263 -0.439794,-0.05583 -0.811291,-0.112248 -0.825549,-0.125367 -0.01426,-0.01312 -0.04611,-0.156892 -0.07079,-0.319496 l -0.04487,-0.295644 0.557458,0.04208 c 1.653117,0.124794 2.917941,0.504601 4.758467,1.428894 1.208795,0.607045 1.808908,0.815943 2.618192,0.911387 0.749099,0.08835 2.176427,0.03377 2.745191,-0.104967 0.226904,-0.05535 0.986292,-0.374978 1.687529,-0.710288 1.678201,-0.802466 2.333936,-1.058132 3.217225,-1.254368 0.688331,-0.152924 1.632754,-0.295797 1.955282,-0.295797 0.134574,0 0.14121,0.01927 0.104139,0.302481 -0.02178,0.166365 -0.04534,0.30988 -0.05237,0.318924 -0.007,0.009 -0.253731,0.04622 -0.548231,0.08262 -1.531577,0.1893 -2.158435,0.391944 -4.133394,1.3362 -1.416835,0.67741 -1.89444,0.853454 -2.579053,0.950632 -0.516433,0.07331 -2.179964,0.07287 -2.738255,-7.13e-4 z m 0.09512,-1.206897 c -0.534417,-0.08447 -1.200596,-0.346961 -2.35577,-0.928229 -1.628646,-0.819514 -2.943179,-1.214474 -4.571816,-1.373634 l -0.782838,-0.0765 0.01867,-0.387005 0.01867,-0.387005 0.764164,-0.04317 c 1.468204,-0.08293 2.675961,-0.442324 4.469145,-1.329872 0.636772,-0.315175 1.314904,-0.627109 1.50696,-0.693186 1.342724,-0.461965 3.329471,-0.460435 4.520665,0.0035 0.180887,0.07045 0.887681,0.396067 1.570653,0.723599 1.877323,0.900306 2.883798,1.203503 4.276789,1.288368 l 0.626596,0.03817 v 0.39784 0.39784 l -0.461682,0.04277 c -0.6398,0.05927 -1.512493,0.208183 -2.117371,0.361293 -0.719205,0.18205 -1.402687,0.457703 -2.865615,1.155719 -0.700484,0.334227 -1.431216,0.656484 -1.623849,0.716127 -0.404457,0.125228 -2.398373,0.187435 -2.993378,0.09339 z m 2.802337,-0.731998 c 0.192633,-0.05915 0.937693,-0.388227 1.655689,-0.73129 1.399726,-0.6688 2.285934,-1.020695 2.897455,-1.150523 0.409396,-0.08692 0.600621,-0.188324 0.355123,-0.188324 -0.314171,0 -1.5596,-0.480782 -2.964583,-1.14444 -0.806345,-0.380885 -1.650929,-0.739975 -1.876854,-0.797977 -0.914755,-0.234848 -2.240242,-0.221972 -3.170373,0.0308 -0.271917,0.0739 -1.110503,0.430834 -1.863523,0.793197 -1.234496,0.594056 -2.036164,0.90789 -2.864696,1.121461 l -0.285643,0.07363 0.572926,0.148411 c 0.905177,0.234479 1.615554,0.514384 2.823403,1.112486 1.684581,0.834169 1.927779,0.895529 3.41563,0.861778 0.662057,-0.01502 1.062692,-0.05467 1.305446,-0.129207 z M 18.773545,17.734964 c 0.08534,-0.513259 0.01856,-0.468784 0.772858,-0.514753 1.297829,-0.07909 2.323889,-0.394038 3.965347,-1.217154 1.230117,-0.616847 1.739253,-0.81013 2.627854,-0.997612 0.895044,-0.188842 2.351209,-0.191579 3.262577,-0.0061 0.789891,0.160728 1.172319,0.3068 2.579054,0.985097 1.825989,0.880452 2.42785,1.079522 3.685009,1.218844 l 0.674777,0.07478 0.05171,0.308413 c 0.02844,0.169627 0.04329,0.314653 0.033,0.322279 -0.04874,0.03613 -1.282121,-0.09884 -1.736296,-0.190005 -0.838454,-0.168293 -1.559102,-0.440582 -3.015462,-1.13936 -1.90764,-0.915308 -2.487883,-1.071992 -3.962236,-1.069932 -1.325539,0.0019 -2.34694,0.280393 -3.786059,1.032475 -1.719851,0.898791 -2.900027,1.242006 -4.694641,1.36528 l -0.491737,0.03378 z m 0.256853,-1.240804 c 0.0996,-0.411591 0.139101,-0.461682 0.364053,-0.461682 0.387039,0 1.325288,-0.191307 1.947985,-0.397189 0.33503,-0.110771 1.110629,-0.454135 1.723552,-0.763031 1.851233,-0.932968 2.943724,-1.216923 4.680505,-1.216532 1.808652,4.08e-4 2.632708,0.214074 4.744184,1.230099 1.496254,0.719984 2.039757,0.917471 2.924785,1.062747 l 0.631154,0.103603 0.06876,0.273072 c 0.03782,0.150189 0.06876,0.289038 0.06876,0.308553 0,0.12429 -1.408837,-0.09129 -2.096133,-0.320756 -0.265606,-0.08868 -1.0847,-0.448862 -1.820208,-0.800414 -2.098053,-1.00281 -2.85803,-1.207411 -4.489463,-1.208656 -1.611357,-0.0012 -2.570367,0.252933 -4.446425,1.178417 -1.698456,0.837871 -2.856205,1.18689 -3.937094,1.18689 h -0.406794 z m 0.405811,-1.089445 c 0,-0.03812 0.0615,-0.195897 0.136664,-0.350609 0.128981,-0.265483 0.154934,-0.283688 0.461682,-0.323857 0.547229,-0.07166 1.378421,-0.38599 2.50088,-0.94575 2.105769,-1.050127 3.269729,-1.346126 5.274738,-1.341386 1.176459,0.0028 1.91018,0.09842 2.854485,0.372067 0.693033,0.200833 0.980224,0.321262 2.572734,1.078838 0.697022,0.331581 1.480412,0.65783 1.740867,0.724998 0.433093,0.111689 0.485706,0.143284 0.615787,0.36979 0.22618,0.393842 0.200095,0.460387 -0.158153,0.403474 -0.826591,-0.131316 -1.486745,-0.381018 -2.980463,-1.127356 -1.059407,-0.529335 -1.818323,-0.816369 -2.55586,-0.96667 -2.414836,-0.492112 -4.560518,-0.194994 -6.769902,0.937448 -1.143916,0.586325 -1.793971,0.857478 -2.451692,1.022658 -0.678157,0.170313 -1.241767,0.23674 -1.241767,0.146355 z m 0.700484,-1.335961 c 0,-0.02932 0.112958,-0.211059 0.251018,-0.403858 0.195079,-0.272425 0.319251,-0.37644 0.557203,-0.466756 0.168401,-0.06392 0.764683,-0.348772 1.32507,-0.633011 2.396442,-1.215524 4.763404,-1.605397 7.370504,-1.21403 1.304379,0.195808 2.260197,0.528793 3.907984,1.361452 0.850452,0.42975 0.896319,0.463163 1.19301,0.869084 0.169706,0.232183 0.295143,0.435564 0.27875,0.451957 -0.04859,0.04859 -0.795106,-0.252623 -1.487094,-0.600034 -0.930855,-0.467334 -1.876704,-0.885224 -2.401203,-1.060888 -1.187017,-0.397553 -2.879926,-0.592398 -4.181447,-0.481261 -1.647345,0.140667 -2.732866,0.459726 -4.455741,1.309643 -1.411125,0.696128 -2.358054,1.044573 -2.358054,0.867702 z m 1.623848,-1.896107 c 0.385236,-0.348481 1.32403,-0.987106 1.810395,-1.23154 0.595301,-0.299184 1.535075,-0.624591 2.236066,-0.774261 0.945797,-0.2019402 2.607481,-0.2035732 3.543497,-0.0035 1.379655,0.294928 2.713988,0.899894 3.637191,1.649048 0.32444,0.263273 0.312134,0.329481 -0.02916,0.156878 -1.074667,-0.543498 -3.251362,-1.143358 -4.68135,-1.290103 -0.748335,-0.07679 -1.783097,7.56e-4 -2.568459,0.192491 -0.998777,0.243837 -2.496446,0.778665 -3.314092,1.183486 -0.456808,0.226168 -0.857994,0.40993 -0.891525,0.40836 -0.03353,-0.0016 0.08231,-0.132464 0.257436,-0.290877 z"
         id="path147"
         sodipodi:nodetypes="scssssssssssssssssssssssssssscsssscscsssssssccsscscssscssssssscccsssscsssssssssssscccssccccssssscccssssccssssssssscssssscssscsscsssscssccssssssscsssscsscssssscssssssssssssssssssssssscsscsssssccc" />
      <g
         aria-label="CORRADO GIZZI
OCULISTA"
         transform="matrix(0.26458333,0,0,0.26458333,-14.13362,2.2919018)"
         id="text2502"
         style="font-weight:600;font-size:21.3333px;line-height:90%;font-family:Montserrat;-inkscape-font-specification:'Montserrat, Semi-Bold';text-align:center;letter-spacing:0px;word-spacing:0px;white-space:pre;shape-inside:url(#rect2504);display:inline;stroke-width:1.17011px">
        <path
           d="m 68.50893,120.90677 q -1.729164,0 -3.197911,-0.51042 -1.458331,-0.51041 -2.510413,-1.52083 -1.052082,-1.01041 -1.635414,-2.52083 -0.572916,-1.51041 -0.572916,-3.48957 0,-1.84375 0.552083,-3.34375 0.552082,-1.5 1.604164,-2.57291 1.010415,-1.03125 2.499996,-1.59375 1.499997,-0.5625 3.270828,-0.5625 0.979165,0 1.760414,0.11459 0.791665,0.10416 1.458331,0.28125 0.697915,0.19791 1.260414,0.44791 0.572916,0.23958 0.999999,0.44792 v 3.76041 h -0.458333 q -0.291666,-0.25 -0.739582,-0.59375 -0.437499,-0.34375 -0.999998,-0.67708 -0.572916,-0.33334 -1.239582,-0.5625 -0.666665,-0.22917 -1.427081,-0.22917 -0.843748,0 -1.604164,0.27083 -0.760415,0.26042 -1.406248,0.875 -0.614582,0.59375 -0.999998,1.57292 -0.374999,0.97916 -0.374999,2.37499 0,1.45833 0.406249,2.4375 0.416666,0.97916 1.041665,1.54166 0.635416,0.57292 1.416664,0.82292 0.781249,0.23958 1.541665,0.23958 0.729165,0 1.437497,-0.21875 0.718749,-0.21875 1.322915,-0.59375 0.510416,-0.30208 0.947915,-0.64583 0.437499,-0.34375 0.718749,-0.59375 h 0.416666 v 3.70833 q -0.583332,0.26042 -1.114582,0.48958 -0.531249,0.22917 -1.114581,0.39583 -0.760416,0.21875 -1.427081,0.33334 -0.666666,0.11458 -1.833331,0.11458 z"
           id="path222" />
        <path
           d="m 92.019309,112.8547 q 0,3.70833 -2.124996,5.89582 -2.124997,2.17708 -5.874991,2.17708 -3.739577,0 -5.864574,-2.17708 -2.124997,-2.18749 -2.124997,-5.89582 0,-3.73958 2.124997,-5.90624 2.124997,-2.17708 5.864574,-2.17708 3.729161,0 5.864574,2.17708 2.135413,2.16666 2.135413,5.90624 z m -5.302075,3.92708 q 0.583333,-0.70834 0.864582,-1.66667 0.28125,-0.96875 0.28125,-2.27083 0,-1.39583 -0.322916,-2.37499 -0.322916,-0.97917 -0.843749,-1.58333 -0.531249,-0.625 -1.229165,-0.90625 -0.687499,-0.28125 -1.437497,-0.28125 -0.760416,0 -1.437498,0.27083 -0.666666,0.27083 -1.229165,0.89583 -0.520832,0.58334 -0.854165,1.61458 -0.322916,1.02084 -0.322916,2.375 0,1.38541 0.312499,2.36458 0.322916,0.96875 0.843749,1.58333 0.520832,0.61458 1.218748,0.90625 0.697916,0.29167 1.468748,0.29167 0.770832,0 1.468747,-0.29167 0.697916,-0.30208 1.218748,-0.92708 z"
           id="path224" />
        <path
           d="m 103.76929,109.84429 q 0,-0.58333 -0.23958,-1 -0.23959,-0.41667 -0.82292,-0.65625 -0.40625,-0.16667 -0.94792,-0.19792 -0.54166,-0.0417 -1.26041,-0.0417 h -1.447914 v 4.17707 h 1.229164 q 0.95833,0 1.60416,-0.0937 0.64584,-0.0937 1.08334,-0.42708 0.41666,-0.32291 0.60416,-0.70833 0.19792,-0.39583 0.19792,-1.05208 z m 6.23957,10.7604 h -4.88541 l -4.22916,-5.68749 h -1.843744 v 5.68749 H 95.071385 V 105.0943 h 6.708325 q 1.375,0 2.36458,0.15625 0.98958,0.15625 1.85416,0.67708 0.875,0.52083 1.38542,1.35416 0.52083,0.82292 0.52083,2.07292 0,1.71874 -0.80208,2.80207 -0.79167,1.08334 -2.27083,1.80208 z"
           id="path226" />
        <path
           d="m 120.45677,109.84429 q 0,-0.58333 -0.23959,-1 -0.23958,-0.41667 -0.82291,-0.65625 -0.40625,-0.16667 -0.94792,-0.19792 -0.54166,-0.0417 -1.26041,-0.0417 h -1.44792 v 4.17707 h 1.22917 q 0.95833,0 1.60416,-0.0937 0.64583,-0.0937 1.08333,-0.42708 0.41667,-0.32291 0.60417,-0.70833 0.19792,-0.39583 0.19792,-1.05208 z m 6.23957,10.7604 h -4.88541 l -4.22916,-5.68749 h -1.84375 v 5.68749 h -3.97916 V 105.0943 h 6.70833 q 1.37499,0 2.36457,0.15625 0.98959,0.15625 1.85417,0.67708 0.875,0.52083 1.38541,1.35416 0.52084,0.82292 0.52084,2.07292 0,1.71874 -0.80209,2.80207 -0.79166,1.08334 -2.27083,1.80208 z"
           id="path228" />
        <path
           d="m 142.77964,120.60469 h -4.13541 l -1.07291,-3.13541 h -5.74999 l -1.07292,3.13541 h -4.03124 l 5.72916,-15.51039 h 4.60416 z m -6.17707,-5.97916 -1.90625,-5.56249 -1.90624,5.56249 z"
           id="path230" />
        <path
           d="m 159.66504,112.86512 q 0,2.16666 -0.98959,3.88541 -0.98958,1.70833 -2.49999,2.62499 -1.13542,0.6875 -2.48958,0.95833 -1.35417,0.27084 -3.20833,0.27084 h -5.46874 V 105.0943 h 5.62499 q 1.89583,0 3.27083,0.32291 1.375,0.3125 2.31249,0.89583 1.60417,0.97917 2.52083,2.64583 0.92709,1.65625 0.92709,3.90625 z m -4.13541,-0.0312 q 0,-1.53125 -0.5625,-2.61458 -0.55209,-1.09375 -1.76042,-1.70833 -0.61458,-0.30209 -1.26041,-0.40625 -0.63542,-0.11459 -1.92708,-0.11459 h -1.01042 v 9.70832 h 1.01042 q 1.42708,0 2.09374,-0.125 0.66667,-0.13541 1.30209,-0.47916 1.09374,-0.625 1.60416,-1.66667 0.51042,-1.05208 0.51042,-2.59374 z"
           id="path232" />
        <path
           d="m 177.80042,112.8547 q 0,3.70833 -2.12499,5.89582 -2.125,2.17708 -5.87499,2.17708 -3.73958,0 -5.86458,-2.17708 -2.12499,-2.18749 -2.12499,-5.89582 0,-3.73958 2.12499,-5.90624 2.125,-2.17708 5.86458,-2.17708 3.72916,0 5.86457,2.17708 2.13541,2.16666 2.13541,5.90624 z m -5.30207,3.92708 q 0.58333,-0.70834 0.86458,-1.66667 0.28125,-0.96875 0.28125,-2.27083 0,-1.39583 -0.32292,-2.37499 -0.32291,-0.97917 -0.84374,-1.58333 -0.53125,-0.625 -1.22917,-0.90625 -0.6875,-0.28125 -1.4375,-0.28125 -0.76041,0 -1.43749,0.27083 -0.66667,0.27083 -1.22917,0.89583 -0.52083,0.58334 -0.85416,1.61458 -0.32292,1.02084 -0.32292,2.375 0,1.38541 0.3125,2.36458 0.32291,0.96875 0.84375,1.58333 0.52083,0.61458 1.21875,0.90625 0.69791,0.29167 1.46874,0.29167 0.77084,0 1.46875,-0.29167 0.69792,-0.30208 1.21875,-0.92708 z"
           id="path234" />
        <path
           d="m 201.86288,119.71927 q -1.04166,0.40625 -2.76041,0.8125 -1.71875,0.39583 -3.42708,0.39583 -3.95832,0 -6.1979,-2.14583 -2.23958,-2.15624 -2.23958,-5.9479 0,-3.61458 2.26041,-5.82291 2.26041,-2.21875 6.30207,-2.21875 1.53125,0 2.91666,0.28125 1.38542,0.27084 3.08333,1.09375 v 3.63541 h -0.44791 q -0.29167,-0.21875 -0.85417,-0.61458 -0.5625,-0.40625 -1.08333,-0.6875 -0.60417,-0.33333 -1.41666,-0.57292 -0.80209,-0.23958 -1.70833,-0.23958 -1.0625,0 -1.92709,0.3125 -0.86458,0.3125 -1.55208,0.95833 -0.65625,0.625 -1.04166,1.59375 -0.375,0.95833 -0.375,2.21875 0,2.57291 1.36458,3.93749 1.36458,1.36458 4.03124,1.36458 0.22917,0 0.5,-0.0104 0.28125,-0.0104 0.51042,-0.0312 v -3.04167 h -3.09375 v -2.92708 h 7.15624 z"
           id="path236" />
        <path
           d="m 213.83162,120.60469 h -9.08332 v -2.75 h 2.54166 v -10.0104 h -2.54166 v -2.74999 h 9.08332 v 2.74999 h -2.54166 v 10.0104 h 2.54166 z"
           id="path238" />
        <path
           d="m 229.08159,120.60469 h -13.03122 v -2.90625 l 7.72915,-9.60415 h -7.35416 v -2.99999 h 12.23957 v 2.95832 l -7.71874,9.55207 h 8.1354 z"
           id="path240" />
        <path
           d="m 243.84199,120.60469 h -13.03123 v -2.90625 l 7.72915,-9.60415 h -7.35415 v -2.99999 h 12.23956 v 2.95832 l -7.71874,9.55207 h 8.13541 z"
           id="path242" />
        <path
           d="m 254.99822,120.60469 h -9.08332 v -2.75 h 2.54166 v -10.0104 h -2.54166 v -2.74999 h 9.08332 v 2.74999 h -2.54167 v 10.0104 h 2.54167 z"
           id="path244" />
        <path
           d="m 122.74702,130.76831 q 0.6239,0.68561 0.953,1.67975 0.33594,0.99413 0.33594,2.25565 0,1.26153 -0.3428,2.26252 -0.33595,0.99413 -0.94614,1.65917 -0.63076,0.69247 -1.49463,1.04213 -0.85702,0.34966 -1.96085,0.34966 -1.07641,0 -1.96084,-0.35651 -0.87759,-0.35652 -1.49463,-1.03528 -0.61705,-0.67875 -0.953,-1.66603 -0.3291,-0.98728 -0.3291,-2.25566 0,-1.24781 0.3291,-2.23509 0.32909,-0.99413 0.95985,-1.70031 0.60334,-0.6719 1.49463,-1.02842 0.89815,-0.35651 1.95399,-0.35651 1.09698,0 1.9677,0.36337 0.87758,0.35652 1.48778,1.02156 z m -0.12341,3.9354 q 0,-1.98827 -0.8913,-3.06468 -0.89129,-1.08326 -2.43391,-1.08326 -1.55634,0 -2.44763,1.08326 -0.88444,1.07641 -0.88444,3.06468 0,2.00884 0.90501,3.07839 0.905,1.0627 2.42706,1.0627 1.52205,0 2.4202,-1.0627 0.90501,-1.06955 0.90501,-3.07839 z"
           style="font-weight:normal;font-size:14.0413px;-inkscape-font-specification:Montserrat;letter-spacing:2.34022px"
           id="path246" />
        <path
           d="m 136.41352,139.06419 q -0.37708,0.16455 -0.68561,0.30853 -0.30167,0.14398 -0.79531,0.30167 -0.41822,0.13026 -0.91186,0.21939 -0.48678,0.096 -1.07641,0.096 -1.11069,0 -2.02255,-0.30853 -0.905,-0.31538 -1.5769,-0.98042 -0.65819,-0.65133 -1.02842,-1.65232 -0.37023,-1.00785 -0.37023,-2.33793 0,-1.26152 0.35652,-2.25566 0.35652,-0.99413 1.02842,-1.67974 0.65133,-0.66505 1.57004,-1.01471 0.92558,-0.34966 2.04998,-0.34966 0.82273,0 1.63861,0.19883 0.82273,0.19883 1.82372,0.69932 v 1.61119 h -0.10284 q -0.8433,-0.70618 -1.67289,-1.02842 -0.82959,-0.32224 -1.77573,-0.32224 -0.77474,0 -1.39865,0.25368 -0.61704,0.24682 -1.10383,0.77474 -0.47307,0.51421 -0.74046,1.30266 -0.26053,0.78159 -0.26053,1.81001 0,1.07641 0.28796,1.85115 0.29481,0.77474 0.75417,1.26152 0.47993,0.50735 1.11754,0.75417 0.64448,0.23997 1.35751,0.23997 0.98042,0 1.83744,-0.33595 0.85701,-0.33595 1.60433,-1.00785 h 0.096 z"
           style="font-weight:normal;font-size:14.0413px;-inkscape-font-specification:Montserrat;letter-spacing:2.34022px"
           id="path248" />
        <path
           d="m 148.35914,135.7047 q 0,1.11069 -0.24682,1.94028 -0.23996,0.82273 -0.79531,1.37122 -0.52792,0.52107 -1.23409,0.76103 -0.70618,0.23996 -1.64547,0.23996 -0.95985,0 -1.67289,-0.25367 -0.71303,-0.25368 -1.19982,-0.74732 -0.55534,-0.5622 -0.80216,-1.35751 -0.23996,-0.7953 -0.23996,-1.95399 v -6.10878 h 1.3575 v 6.17735 q 0,0.82958 0.1097,1.30951 0.11656,0.47993 0.38394,0.87073 0.30167,0.44564 0.81588,0.67189 0.52106,0.22626 1.24781,0.22626 0.7336,0 1.24781,-0.2194 0.51421,-0.22625 0.82273,-0.67875 0.26739,-0.3908 0.37709,-0.8913 0.11655,-0.50735 0.11655,-1.25466 v -6.21163 h 1.35751 z"
           style="font-weight:normal;font-size:14.0413px;-inkscape-font-specification:Montserrat;letter-spacing:2.34022px"
           id="path250" />
        <path
           d="m 159.74942,139.80465 h -6.45845 v -10.20873 h 1.35751 v 9.00206 h 5.10094 z"
           style="font-weight:normal;font-size:14.0413px;-inkscape-font-specification:Montserrat;letter-spacing:2.34022px"
           id="path252" />
        <path
           d="m 167.0466,139.80465 h -4.03139 v -1.04212 h 1.33694 v -8.12449 h -1.33694 v -1.04212 h 4.03139 v 1.04212 h -1.33694 v 8.12449 h 1.33694 z"
           style="font-weight:normal;font-size:14.0413px;-inkscape-font-specification:Montserrat;letter-spacing:2.34022px"
           id="path254" />
        <path
           d="m 179.11563,136.89081 q 0,0.59648 -0.2811,1.17925 -0.27424,0.58277 -0.77474,0.98728 -0.54849,0.43879 -1.28209,0.68561 -0.72675,0.24682 -1.75516,0.24682 -1.10383,0 -1.98827,-0.20568 -0.87758,-0.20569 -1.78945,-0.6102 v -1.70031 h 0.096 q 0.77474,0.64447 1.78944,0.99413 1.01471,0.34967 1.906,0.34967 1.26152,0 1.96085,-0.47308 0.70617,-0.47307 0.70617,-1.26152 0,-0.67875 -0.33594,-1.00099 -0.3291,-0.32224 -1.00785,-0.5005 -0.51421,-0.13712 -1.11755,-0.22625 -0.59648,-0.0891 -1.26838,-0.22625 -1.3575,-0.28795 -2.01569,-0.98042 -0.65133,-0.69932 -0.65133,-1.81687 0,-1.28209 1.08326,-2.09797 1.08327,-0.82273 2.7493,-0.82273 1.07641,0 1.97456,0.20568 0.89815,0.20569 1.59062,0.50736 v 1.60432 h -0.096 q -0.58277,-0.49364 -1.53577,-0.81587 -0.94614,-0.32909 -1.94027,-0.32909 -1.09012,0 -1.75517,0.4525 -0.65818,0.4525 -0.65818,1.16554 0,0.63761 0.32909,1.00099 0.32909,0.36337 1.15868,0.55534 0.43879,0.096 1.24781,0.23311 0.80902,0.13712 1.37122,0.2811 1.13812,0.30167 1.71403,0.91186 0.57591,0.61019 0.57591,1.70717 z"
           style="font-weight:normal;font-size:14.0413px;-inkscape-font-specification:Montserrat;letter-spacing:2.34022px"
           id="path256" />
        <path
           d="m 190.91728,130.80259 h -3.64745 v 9.00206 h -1.35751 v -9.00206 h -3.64745 v -1.20667 h 8.65241 z"
           style="font-weight:normal;font-size:14.0413px;-inkscape-font-specification:Montserrat;letter-spacing:2.34022px"
           id="path258" />
        <path
           d="m 201.85505,139.80465 h -1.44664 l -1.00099,-2.84528 h -4.41533 l -1.00099,2.84528 h -1.37808 l 3.71601,-10.20873 h 1.81001 z m -2.86585,-4.01082 -1.78944,-5.01181 -1.7963,5.01181 z"
           style="font-weight:normal;font-size:14.0413px;-inkscape-font-specification:Montserrat;letter-spacing:2.34022px"
           id="path260" />
      </g>
    </g>
  </g>
</svg>
