<?xml version="1.0" encoding="UTF-8" standalone="no"?>
<!-- Created with Inkscape (http://www.inkscape.org/) -->

<svg
   width="15.188603mm"
   height="15.151301mm"
   viewBox="0 0 15.188603 15.151302"
   version="1.1"
   id="svg5"
   sodipodi:docname="Logo_CG_vettoriale.svg"
   inkscape:version="1.2.2 (732a01da63, 2022-12-09)"
   inkscape:export-filename="Business_Card_back_last.pdf"
   inkscape:export-xdpi="299.815"
   inkscape:export-ydpi="299.815"
   xmlns:inkscape="http://www.inkscape.org/namespaces/inkscape"
   xmlns:sodipodi="http://sodipodi.sourceforge.net/DTD/sodipodi-0.dtd"
   xmlns="http://www.w3.org/2000/svg"
   xmlns:svg="http://www.w3.org/2000/svg">
  <sodipodi:namedview
     id="namedview7"
     pagecolor="#ffffff"
     bordercolor="#999999"
     borderopacity="1"
     inkscape:pageshadow="0"
     inkscape:pageopacity="0"
     inkscape:pagecheckerboard="false"
     inkscape:document-units="mm"
     showgrid="false"
     width="55mm"
     inkscape:zoom="3.4588258"
     inkscape:cx="50.161531"
     inkscape:cy="50.450647"
     inkscape:window-width="1920"
     inkscape:window-height="1002"
     inkscape:window-x="-8"
     inkscape:window-y="-8"
     inkscape:window-maximized="1"
     inkscape:current-layer="g36245"
     height="85mm"
     inkscape:showpageshadow="0"
     inkscape:deskcolor="#d1d1d1"
     inkscape:export-bgcolor="#ffffffff" />
  <defs
     id="defs2">
    <rect
       x="13.299311"
       y="17.636044"
       width="178.24394"
       height="283.12775"
       id="rect3166" />
  </defs>
  <g
     inkscape:groupmode="layer"
     id="layer2"
     inkscape:label="Layer 2"
     style="display:none"
     transform="translate(-19.802827,-40.170286)">
    <text
       xml:space="preserve"
       transform="matrix(0.26458333,0,0,0.26458333,1.0698574,5.4229173)"
       id="text3164"
       style="font-style:normal;font-variant:normal;font-weight:normal;font-stretch:normal;font-size:8px;line-height:0;font-family:Montserrat;-inkscape-font-specification:Montserrat;letter-spacing:0px;word-spacing:0px;white-space:pre;shape-inside:url(#rect3166);display:inline;fill:#000000;fill-opacity:1;stroke:none;stroke-width:1px;stroke-linecap:butt;stroke-linejoin:miter;stroke-opacity:1"><tspan
         x="13.298828"
         y="30.234004"
         id="tspan548"><tspan
           style="font-weight:600;font-size:16px;line-height:100%;-inkscape-font-specification:'Montserrat Semi-Bold'"
           id="tspan544">Dott. Corrado Gizzi</tspan><tspan
           style="line-height:100%"
           id="tspan546">
</tspan></tspan><tspan
         x="13.298828"
         y="39.935361"
         id="tspan552"><tspan
           style="line-height:100%"
           id="tspan550">
</tspan></tspan><tspan
         x="13.298828"
         y="50.851798"
         id="tspan556"><tspan
           style="font-size:9.33333px;line-height:140%"
           id="tspan554">Medico Chirurgo
</tspan></tspan><tspan
         x="13.298828"
         y="63.91846"
         id="tspan560"><tspan
           style="font-size:9.33333px;line-height:140%"
           id="tspan558">Specialista in Oftalmologia
</tspan></tspan><tspan
         x="13.298828"
         y="76.985122"
         id="tspan564"><tspan
           style="font-size:9.33333px;line-height:140%"
           id="tspan562">Fellowship in Glaucoma
</tspan></tspan><tspan
         x="13.298828"
         y="90.05178"
         id="tspan570"><tspan
           style="font-size:9.33333px;line-height:140%"
           id="tspan566">Moorfields Eye Hospital, London - UK</tspan><tspan
           style="line-height:94.53%"
           id="tspan568">
</tspan></tspan><tspan
         x="13.298828"
         y="103.60201"
         id="tspan574"><tspan
           style="line-height:185%"
           id="tspan572">
</tspan></tspan><tspan
         x="13.298828"
         y="118.40201"
         id="tspan578"><tspan
           style="line-height:185%"
           id="tspan576">
</tspan></tspan><tspan
         x="13.298828"
         y="133.20201"
         id="tspan582"><tspan
           style="line-height:185%"
           id="tspan580">
</tspan></tspan><tspan
         x="13.298828"
         y="146.95846"
         id="tspan588"><tspan
           style="font-weight:500;font-size:9.33333px;-inkscape-font-specification:'Montserrat Medium'"
           id="tspan584">LCB - Life Clinic Bologna</tspan><tspan
           style="font-size:9.33333px;line-height:128%"
           id="tspan586">
</tspan></tspan><tspan
         x="13.298828"
         y="158.90511"
         id="tspan592"><tspan
           style="font-size:9.33333px;line-height:128%"
           id="tspan590">Via del Lavoro 44 - Bologna
</tspan></tspan><tspan
         x="13.298828"
         y="170.85177"
         id="tspan596"><tspan
           style="font-size:9.33333px;line-height:128%"
           id="tspan594">Tel. 051.242588
</tspan></tspan><tspan
         x="13.298828"
         y="182.79842"
         id="tspan600"><tspan
           style="font-size:9.33333px;line-height:128%"
           id="tspan598">
</tspan></tspan><tspan
         x="13.298828"
         y="194.74508"
         id="tspan606"><tspan
           style="font-weight:500;font-size:9.33333px;-inkscape-font-specification:'Montserrat Medium'"
           id="tspan602">Studio Sapigni</tspan><tspan
           style="font-size:9.33333px;line-height:128%"
           id="tspan604">
</tspan></tspan><tspan
         x="13.298828"
         y="206.69173"
         id="tspan610"><tspan
           style="font-size:9.33333px;line-height:128%"
           id="tspan608">Viale Carducci 29a - Gambettola (FC)
</tspan></tspan><tspan
         x="13.298828"
         y="218.63839"
         id="tspan614"><tspan
           style="font-size:9.33333px;line-height:128%"
           id="tspan612">Tel. 0547.59318    Cell. 392.5132783
</tspan></tspan><tspan
         x="13.298828"
         y="230.58504"
         id="tspan618"><tspan
           style="font-size:9.33333px;line-height:128%"
           id="tspan616">
</tspan></tspan><tspan
         x="13.298828"
         y="242.3917"
         id="tspan624"><tspan
           style="font-weight:500;font-size:9.33333px;line-height:125%;-inkscape-font-specification:'Montserrat Medium'"
           id="tspan620">Polo Oculistico Emiliano</tspan><tspan
           style="font-size:9.33333px;line-height:125%"
           id="tspan622">
</tspan></tspan><tspan
         x="13.298828"
         y="254.05835"
         id="tspan628"><tspan
           style="font-size:9.33333px;line-height:125%"
           id="tspan626">Via Vignolese 19 - Modena
</tspan></tspan><tspan
         x="13.298828"
         y="265.72501"
         id="tspan632"><tspan
           style="font-size:9.33333px;line-height:125%"
           id="tspan630">Tel. 059. 7128699    Cell. </tspan></tspan><tspan
         x="13.298828"
         y="277.39167"
         id="tspan638"><tspan
           style="font-size:9.33333px;line-height:125%"
           id="tspan634">338.2580808</tspan><tspan
           style="line-height:125%"
           id="tspan636"> 
</tspan></tspan></text>
  </g>
  <g
     inkscape:label="Layer 1"
     inkscape:groupmode="layer"
     id="layer1"
     style="display:inline"
     transform="translate(-19.802827,-40.170286)">
    <g
       id="g36245"
       transform="matrix(0.85462164,0,0,0.85462164,3.795579,31.611819)"
       style="fill:#000000;fill-opacity:1;stroke-width:1.17011">
      <path
         style="fill:#000000;fill-opacity:1;stroke-width:1.17011"
         d="m 26.568406,27.716171 c -0.05254,-0.01029 -0.310441,-0.05312 -0.573123,-0.09517 -1.038467,-0.166247 -2.36874,-0.697638 -3.293189,-1.315496 -0.569146,-0.380391 -1.244972,-0.937245 -1.168936,-0.963157 0.03115,-0.01062 0.395948,0.150518 0.810656,0.358078 0.414708,0.20756 1.026248,0.478523 1.358977,0.602141 0.76457,0.284059 2.163761,0.651901 2.855873,0.750799 0.814646,0.116406 1.970381,0.0455 3.121442,-0.191496 1.249779,-0.257325 1.805158,-0.434714 2.828204,-0.903333 0.454709,-0.208285 0.839793,-0.36565 0.855743,-0.349701 0.04612,0.04612 -0.63538,0.558774 -1.182465,0.889502 -0.985497,0.595758 -2.191214,1.022091 -3.344071,1.182439 -0.43737,0.06083 -2.013775,0.08542 -2.269111,0.0354 z m -0.562061,-1.247146 c -1.154973,-0.13414 -2.228098,-0.49753 -3.831882,-1.297581 -0.577899,-0.288287 -1.151022,-0.557654 -1.273606,-0.598594 -0.156995,-0.05243 -0.305133,-0.187752 -0.501122,-0.457758 -0.153033,-0.210827 -0.261208,-0.400355 -0.24039,-0.421173 0.09032,-0.09032 1.382796,0.405141 2.408822,0.923416 1.182146,0.597135 2.139287,0.950487 3.076875,1.135902 0.453011,0.08959 0.893419,0.113349 2.101451,0.113386 2.222437,6.4e-5 2.73447,-0.125046 5.062586,-1.237032 1.333827,-0.637081 2.037112,-0.923852 2.162871,-0.881933 0.03886,0.01296 -0.06623,0.207771 -0.233544,0.432924 -0.302075,0.406501 -0.312242,0.413247 -1.451089,0.962881 -1.919193,0.926248 -2.492217,1.125885 -3.725323,1.297873 -0.766315,0.106883 -2.74135,0.122263 -3.555649,0.02769 z m 0.09304,-1.207545 c -1.096549,-0.150669 -2.063087,-0.493003 -3.574681,-1.2661 -0.969002,-0.495593 -1.715181,-0.773971 -2.425319,-0.904819 -0.376103,-0.0693 -0.397929,-0.08382 -0.527753,-0.351033 -0.07448,-0.153309 -0.135424,-0.306633 -0.135424,-0.34072 0,-0.08712 0.18487,-0.07748 0.750929,0.03916 0.885366,0.182421 1.657332,0.471077 2.898148,1.083686 1.964942,0.970121 2.660359,1.139921 4.661207,1.138125 2.020846,-0.0018 2.426257,-0.105753 4.776025,-1.22448 0.735507,-0.350175 1.487209,-0.685401 1.670447,-0.744944 0.41381,-0.134469 1.497095,-0.35938 1.537302,-0.319174 0.01634,0.01634 -0.03773,0.173678 -0.120146,0.349644 -0.110312,0.235521 -0.192973,0.328621 -0.313281,0.352852 -0.551461,0.111065 -1.528674,0.492352 -2.672438,1.04273 -2.147302,1.033279 -2.607537,1.150193 -4.655028,1.182524 -0.788044,0.01244 -1.629539,-0.0044 -1.869988,-0.03745 z m -0.01276,-1.234016 c -0.80792,-0.125549 -1.558534,-0.39653 -2.763791,-0.997763 -1.593271,-0.79479 -2.581763,-1.124891 -3.75272,-1.253196 l -0.407372,-0.04464 -0.09004,-0.309207 c -0.04952,-0.170064 -0.07603,-0.32321 -0.05892,-0.340326 0.0568,-0.0568 1.208384,0.112597 1.880963,0.276679 0.87109,0.212511 1.66207,0.51847 2.521478,0.97533 0.91297,0.485335 1.678413,0.798834 2.370403,0.970836 0.482163,0.119848 0.742486,0.139384 1.896179,0.1423 1.855981,0.0047 2.113794,-0.05998 4.171062,-1.046253 0.717996,-0.344214 1.55582,-0.713504 1.861831,-0.820643 0.513594,-0.179817 1.538688,-0.401097 2.204724,-0.475919 0.272436,-0.0306 0.276944,-0.02803 0.243435,0.13881 -0.09648,0.480372 -0.107279,0.488446 -0.807165,0.603331 -0.927757,0.152291 -1.747754,0.449115 -3.343624,1.210334 -1.540592,0.734851 -1.815401,0.833294 -2.706414,0.969507 -0.73612,0.112533 -2.498254,0.11298 -3.220031,8.15e-4 z m 0.258895,-1.18402 c -0.638212,-0.08412 -1.548105,-0.415132 -2.538037,-0.92332 -1.586201,-0.814286 -2.629086,-1.154887 -4.112936,-1.343263 -0.439794,-0.05583 -0.811291,-0.112248 -0.825549,-0.125367 -0.01426,-0.01312 -0.04611,-0.156892 -0.07079,-0.319496 l -0.04487,-0.295644 0.557458,0.04208 c 1.653117,0.124794 2.917941,0.504601 4.758467,1.428894 1.208795,0.607045 1.808908,0.815943 2.618192,0.911387 0.749099,0.08835 2.176427,0.03377 2.745191,-0.104967 0.226904,-0.05535 0.986292,-0.374978 1.687529,-0.710288 1.678201,-0.802466 2.333936,-1.058132 3.217225,-1.254368 0.688331,-0.152924 1.632754,-0.295797 1.955282,-0.295797 0.134574,0 0.14121,0.01927 0.104139,0.302481 -0.02178,0.166365 -0.04534,0.30988 -0.05237,0.318924 -0.007,0.009 -0.253731,0.04622 -0.548231,0.08262 -1.531577,0.1893 -2.158435,0.391944 -4.133394,1.3362 -1.416835,0.67741 -1.89444,0.853454 -2.579053,0.950632 -0.516433,0.07331 -2.179964,0.07287 -2.738255,-7.13e-4 z m 0.09512,-1.206897 c -0.534417,-0.08447 -1.200596,-0.346961 -2.35577,-0.928229 -1.628646,-0.819514 -2.943179,-1.214474 -4.571816,-1.373634 l -0.782838,-0.0765 0.01867,-0.387005 0.01867,-0.387005 0.764164,-0.04317 c 1.468204,-0.08293 2.675961,-0.442324 4.469145,-1.329872 0.636772,-0.315175 1.314904,-0.627109 1.50696,-0.693186 1.342724,-0.461965 3.329471,-0.460435 4.520665,0.0035 0.180887,0.07045 0.887681,0.396067 1.570653,0.723599 1.877323,0.900306 2.883798,1.203503 4.276789,1.288368 l 0.626596,0.03817 v 0.39784 0.39784 l -0.461682,0.04277 c -0.6398,0.05927 -1.512493,0.208183 -2.117371,0.361293 -0.719205,0.18205 -1.402687,0.457703 -2.865615,1.155719 -0.700484,0.334227 -1.431216,0.656484 -1.623849,0.716127 -0.404457,0.125228 -2.398373,0.187435 -2.993378,0.09339 z m 2.802337,-0.731998 c 0.192633,-0.05915 0.937693,-0.388227 1.655689,-0.73129 1.399726,-0.6688 2.285934,-1.020695 2.897455,-1.150523 0.409396,-0.08692 0.600621,-0.188324 0.355123,-0.188324 -0.314171,0 -1.5596,-0.480782 -2.964583,-1.14444 -0.806345,-0.380885 -1.650929,-0.739975 -1.876854,-0.797977 -0.914755,-0.234848 -2.240242,-0.221972 -3.170373,0.0308 -0.271917,0.0739 -1.110503,0.430834 -1.863523,0.793197 -1.234496,0.594056 -2.036164,0.90789 -2.864696,1.121461 l -0.285643,0.07363 0.572926,0.148411 c 0.905177,0.234479 1.615554,0.514384 2.823403,1.112486 1.684581,0.834169 1.927779,0.895529 3.41563,0.861778 0.662057,-0.01502 1.062692,-0.05467 1.305446,-0.129207 z M 18.773545,17.734964 c 0.08534,-0.513259 0.01856,-0.468784 0.772858,-0.514753 1.297829,-0.07909 2.323889,-0.394038 3.965347,-1.217154 1.230117,-0.616847 1.739253,-0.81013 2.627854,-0.997612 0.895044,-0.188842 2.351209,-0.191579 3.262577,-0.0061 0.789891,0.160728 1.172319,0.3068 2.579054,0.985097 1.825989,0.880452 2.42785,1.079522 3.685009,1.218844 l 0.674777,0.07478 0.05171,0.308413 c 0.02844,0.169627 0.04329,0.314653 0.033,0.322279 -0.04874,0.03613 -1.282121,-0.09884 -1.736296,-0.190005 -0.838454,-0.168293 -1.559102,-0.440582 -3.015462,-1.13936 -1.90764,-0.915308 -2.487883,-1.071992 -3.962236,-1.069932 -1.325539,0.0019 -2.34694,0.280393 -3.786059,1.032475 -1.719851,0.898791 -2.900027,1.242006 -4.694641,1.36528 l -0.491737,0.03378 z m 0.256853,-1.240804 c 0.0996,-0.411591 0.139101,-0.461682 0.364053,-0.461682 0.387039,0 1.325288,-0.191307 1.947985,-0.397189 0.33503,-0.110771 1.110629,-0.454135 1.723552,-0.763031 1.851233,-0.932968 2.943724,-1.216923 4.680505,-1.216532 1.808652,4.08e-4 2.632708,0.214074 4.744184,1.230099 1.496254,0.719984 2.039757,0.917471 2.924785,1.062747 l 0.631154,0.103603 0.06876,0.273072 c 0.03782,0.150189 0.06876,0.289038 0.06876,0.308553 0,0.12429 -1.408837,-0.09129 -2.096133,-0.320756 -0.265606,-0.08868 -1.0847,-0.448862 -1.820208,-0.800414 -2.098053,-1.00281 -2.85803,-1.207411 -4.489463,-1.208656 -1.611357,-0.0012 -2.570367,0.252933 -4.446425,1.178417 -1.698456,0.837871 -2.856205,1.18689 -3.937094,1.18689 h -0.406794 z m 0.405811,-1.089445 c 0,-0.03812 0.0615,-0.195897 0.136664,-0.350609 0.128981,-0.265483 0.154934,-0.283688 0.461682,-0.323857 0.547229,-0.07166 1.378421,-0.38599 2.50088,-0.94575 2.105769,-1.050127 3.269729,-1.346126 5.274738,-1.341386 1.176459,0.0028 1.91018,0.09842 2.854485,0.372067 0.693033,0.200833 0.980224,0.321262 2.572734,1.078838 0.697022,0.331581 1.480412,0.65783 1.740867,0.724998 0.433093,0.111689 0.485706,0.143284 0.615787,0.36979 0.22618,0.393842 0.200095,0.460387 -0.158153,0.403474 -0.826591,-0.131316 -1.486745,-0.381018 -2.980463,-1.127356 -1.059407,-0.529335 -1.818323,-0.816369 -2.55586,-0.96667 -2.414836,-0.492112 -4.560518,-0.194994 -6.769902,0.937448 -1.143916,0.586325 -1.793971,0.857478 -2.451692,1.022658 -0.678157,0.170313 -1.241767,0.23674 -1.241767,0.146355 z m 0.700484,-1.335961 c 0,-0.02932 0.112958,-0.211059 0.251018,-0.403858 0.195079,-0.272425 0.319251,-0.37644 0.557203,-0.466756 0.168401,-0.06392 0.764683,-0.348772 1.32507,-0.633011 2.396442,-1.215524 4.763404,-1.605397 7.370504,-1.21403 1.304379,0.195808 2.260197,0.528793 3.907984,1.361452 0.850452,0.42975 0.896319,0.463163 1.19301,0.869084 0.169706,0.232183 0.295143,0.435564 0.27875,0.451957 -0.04859,0.04859 -0.795106,-0.252623 -1.487094,-0.600034 -0.930855,-0.467334 -1.876704,-0.885224 -2.401203,-1.060888 -1.187017,-0.397553 -2.879926,-0.592398 -4.181447,-0.481261 -1.647345,0.140667 -2.732866,0.459726 -4.455741,1.309643 -1.411125,0.696128 -2.358054,1.044573 -2.358054,0.867702 z m 1.623848,-1.896107 c 0.385236,-0.348481 1.32403,-0.987106 1.810395,-1.23154 0.595301,-0.299184 1.535075,-0.624591 2.236066,-0.774261 0.945797,-0.2019402 2.607481,-0.2035732 3.543497,-0.0035 1.379655,0.294928 2.713988,0.899894 3.637191,1.649048 0.32444,0.263273 0.312134,0.329481 -0.02916,0.156878 -1.074667,-0.543498 -3.251362,-1.143358 -4.68135,-1.290103 -0.748335,-0.07679 -1.783097,7.56e-4 -2.568459,0.192491 -0.998777,0.243837 -2.496446,0.778665 -3.314092,1.183486 -0.456808,0.226168 -0.857994,0.40993 -0.891525,0.40836 -0.03353,-0.0016 0.08231,-0.132464 0.257436,-0.290877 z"
         id="path147"
         sodipodi:nodetypes="scssssssssssssssssssssssssssscsssscscsssssssccsscscssscssssssscccsssscsssssssssssscccssccccssssscccssssccssssssssscssssscssscsscsssscssccssssssscsssscsscssssscssssssssssssssssssssssscsscsssssccc" />
    </g>
  </g>
</svg>
